<svg width="45" height="120" xmlns="http://www.w3.org/2000/svg">
 <!-- Created with SVG Editor - http://github.com/mzalive/SVG Editor/ -->

 <g>
  <title>background</title>
  <rect x="-1" y="-1" width="47" height="122" id="canvas_background" fill="#303844"/>
  <g id="canvasGrid" display="none">
   <rect id="svg_1" width="100%" height="100%" x="0" y="0" stroke-width="0" fill="url(#gridpattern)"/>
  </g>
 </g>
 <g>
  <title>Layer 1</title>
  <rect fill="none" stroke="#000000" stroke-width="NaN" stroke-opacity="null" x="181.693433" y="94.339692" width="3.870965" height="0.645161" id="svg_20"/>
  <line opacity="0.15" stroke-linecap="null" stroke-linejoin="null" id="svg_27" y2="22.329102" y1="-0.170898" x1="45" fill-opacity="null" stroke-opacity="null" stroke-width="2" stroke="#000000" fill="none"/>
  <line opacity="0.15" stroke-linecap="null" stroke-linejoin="null" id="svg_30" y2="42" y1="20" x1="45" fill-opacity="null" stroke-opacity="null" stroke-width="2" stroke="#000000" fill="none"/>
  <line x2="45" opacity="0.15" stroke-linecap="null" stroke-linejoin="null" id="svg_31" y2="60" y1="42" x1="0" fill-opacity="null" stroke-opacity="null" stroke-width="2" stroke="#000000" fill="none"/>
  <line x2="45" opacity="0.15" stroke-linecap="null" stroke-linejoin="null" id="svg_32" y2="80" y1="62" fill-opacity="null" stroke-opacity="null" stroke-width="2" stroke="#000000" fill="none"/>
  <line x2="0.625" opacity="0.15" stroke-linecap="null" stroke-linejoin="null" id="svg_33" y2="102.641602" y1="80.141602" x1="45.625" fill-opacity="null" stroke-opacity="null" stroke-width="2" stroke="#000000" fill="none"/>
  <line x2="1.5625" opacity="0.15" stroke-linecap="null" stroke-linejoin="null" id="svg_34" y2="122.329102" y1="99.829102" x1="46.5625" fill-opacity="null" stroke-opacity="null" stroke-width="2" stroke="#000000" fill="none"/>
  <line x1="0" x2="45" opacity="0.15" stroke-linecap="null" stroke-linejoin="null" id="svg_37" y2="69.6875" y1="51.6875" fill-opacity="null" stroke-opacity="null" stroke-width="2" stroke="#000000" fill="none"/>
  <line x2="1.25" opacity="0.15" stroke-linecap="null" stroke-linejoin="null" id="svg_38" y2="113.266602" y1="90.766602" x1="46.25" fill-opacity="null" stroke-opacity="null" stroke-width="2" stroke="#000000" fill="none"/>
  <line x2="0.3125" opacity="0.15" stroke-linecap="null" stroke-linejoin="null" id="svg_39" y2="31.375" y1="9.375" x1="45.3125" fill-opacity="null" stroke-opacity="null" stroke-width="2" stroke="#000000" fill="none"/>
  <ellipse fill="#ffc700" stroke="#000000" stroke-width="2" cx="22" cy="16.963646" id="svg_6" rx="6.774189" ry="7"/>
  <path stroke-width="2" stroke="#000000" fill="#ffc700" stroke-opacity="null" fill-opacity="null" d="m14.334684,97.33789l6.237781,0l1.927528,-6.337887l1.927528,6.337887l6.237794,0l-5.046471,3.91698l1.927632,6.337872l-5.046483,-3.917087l-5.04647,3.917087l1.927631,-6.337872l-5.04647,-3.91698z" id="svg_36"/>
  <path stroke-width="2" stroke="#000000" fill="#ffc700" stroke-opacity="null" fill-opacity="null" d="m14.334684,77.33789l6.237781,0l1.927528,-6.337887l1.927528,6.337887l6.237794,0l-5.046471,3.91698l1.927632,6.337872l-5.046483,-3.917087l-5.04647,3.917087l1.927631,-6.337872l-5.04647,-3.91698z" id="svg_43"/>
  <path stroke-width="2" stroke="#000000" fill="#ffc700" stroke-opacity="null" fill-opacity="null" d="m14.334684,57.33789l6.237781,0l1.927528,-6.337887l1.927528,6.337887l6.237794,0l-5.046471,3.91698l1.927632,6.337872l-5.046483,-3.917087l-5.04647,3.917087l1.927631,-6.337872l-5.04647,-3.91698z" id="svg_44"/>
 </g>
</svg>