<svg width="45" height="120" xmlns="http://www.w3.org/2000/svg">
 <!-- Created with SVG Editor - http://github.com/mzalive/SVG Editor/ -->

 <g>
  <title>background</title>
  <rect x="-1" y="-1" width="47" height="122" id="canvas_background" fill="#303844"/>
  <g id="canvasGrid" display="none">
   <rect id="svg_1" width="100%" height="100%" x="0" y="0" stroke-width="0" fill="url(#gridpattern)"/>
  </g>
 </g>
 <g>
  <title>Layer 1</title>
  <path stroke="#000000" fill="#ffc700" stroke-opacity="null" fill-opacity="null" d="m26.874999,97.189322l4.8054,0l1.48491,-4.18932l1.48491,4.18932l4.80541,0l-3.88765,2.58911l1.48499,4.18931l-3.88766,-2.58918l-3.88765,2.58918l1.48499,-4.18931l-3.88765,-2.58911z" id="svg_15"/>
  <rect fill="none" stroke="#000000" stroke-width="NaN" stroke-opacity="null" x="181.693433" y="94.339692" width="3.870965" height="0.645161" id="svg_20"/>
  <line stroke="#ed472a" stroke-linecap="null" stroke-linejoin="null" id="svg_3" y2="120" x2="22.5" y1="0" x1="22.5" fill-opacity="null" stroke-width="2" fill="none"/>
  <ellipse fill="#ffc700" stroke="#000000" stroke-width="2" cx="22.177427" cy="16.963646" id="svg_6" rx="6.774189" ry="7"/>
  <path fill="#ffc700" stroke-opacity="null" fill-opacity="null" d="m5,97.189322l4.8054,0l1.48491,-4.18932l1.48491,4.18932l4.80541,0l-3.88765,2.58911l1.48499,4.18931l-3.88766,-2.58918l-3.88765,2.58918l1.48499,-4.18931l-3.88765,-2.58911z" id="svg_9" stroke="#000000"/>
 </g>
</svg>