<svg width="45" height="120" xmlns="http://www.w3.org/2000/svg">
 <!-- Created with SVG Editor - http://github.com/mzalive/SVG Editor/ -->

 <g>
  <title>background</title>
  <rect fill="#303844" id="canvas_background" height="122" width="47" y="-1" x="-1"/>
  <g display="none" overflow="visible" y="0" x="0" height="100%" width="100%" id="canvasGrid">
   <rect fill="url(#gridpattern)" stroke-width="0" y="0" x="0" height="100%" width="100%"/>
  </g>
 </g>
 <g>
  <title>Layer 1</title>
  <ellipse ry="7" rx="6.774189" id="svg_4" cy="102.588646" cx="12.177427" stroke-width="2" stroke="#000000" fill="#ffc700"/>
  <path stroke="#000000" id="svg_14" d="m16.209682,72.65118l4.805408,0l1.484909,-4.189314l1.48491,4.189314l4.805408,0l-3.887651,2.58911l1.484986,4.189315l-3.887652,-2.589181l-3.887652,2.589181l1.484987,-4.189315l-3.887651,-2.58911z" fill-opacity="null" stroke-opacity="null" fill="#ffc700"/>
  <path stroke="#000000" id="svg_15" d="m28.145157,96.844709l4.805408,0l1.484909,-4.189314l1.48491,4.189314l4.805408,0l-3.887651,2.58911l1.484985,4.189315l-3.887652,-2.589181l-3.887652,2.589181l1.484987,-4.189315l-3.887652,-2.58911z" fill-opacity="null" stroke-opacity="null" fill="#ffc700"/>
  <path stroke="#000000" id="svg_16" d="m16.209682,48.457649l4.805408,0l1.484909,-4.189315l1.48491,4.189315l4.805408,0l-3.887651,2.589109l1.484985,4.189315l-3.887652,-2.58918l-3.887652,2.58918l1.484987,-4.189315l-3.887652,-2.589109z" fill-opacity="null" stroke-opacity="null" fill="#ffc700"/>
  <rect stroke="#000000" id="svg_19" height="125.161198" width="16.774185" y="-2.75701" x="14.322577" stroke-opacity="null" stroke-width="NaN" fill="none"/>
  <rect id="svg_20" height="0.645161" width="3.870965" y="94.339692" x="181.693433" stroke-opacity="null" stroke-width="NaN" stroke="#000000" fill="none"/>
 </g>
</svg>